<svg fill="#424242" width="14" height="14" viewBox="0 0 67 67" version="1.1" xmlns="http://www.w3.org/2000/svg" xmlns:xlink="http://www.w3.org/1999/xlink" xml:space="preserve" xmlns:serif="http://www.serif.com/" style="fill-rule:evenodd;clip-rule:evenodd;stroke-linejoin:round;stroke-miterlimit:2;"><path d="M45.376,31.282c-2.706,0.461 -5.584,-0.345 -7.675,-2.436l-3.655,-3.656c-1.439,-1.439 -2.245,-3.377 -2.245,-5.41l-0,-1.161l-7.646,-4.174c-0.509,-0.278 -0.825,-0.825 -0.797,-1.41c0.029,-0.585 0.374,-1.103 0.912,-1.343l4.528,-2.015c1.765,-0.777 3.674,-1.18 5.612,-1.18l1.737,0c3.521,0 6.907,1.344 9.469,3.752l4.278,4.029c2.322,2.187 3.185,5.344 2.552,8.25l1.516,1.526l0.768,-0.768c0.901,-0.901 2.36,-0.901 3.252,0l2.302,2.303c0.902,0.902 0.902,2.36 0,3.252l-8.442,8.442c-0.902,0.902 -2.36,0.902 -3.252,0l-2.303,-2.302c-0.902,-0.902 -0.902,-2.36 0,-3.252l0.768,-0.768l-1.679,-1.679Zm-37.041,13.393l22.401,-18.66c0.336,0.471 0.719,0.921 1.132,1.344l3.655,3.655c0.576,0.575 1.19,1.074 1.842,1.506l-18.717,22.468c-1.391,1.67 -3.454,2.629 -5.622,2.629c-4.049,-0 -7.32,-3.281 -7.32,-7.32c-0,-2.168 0.969,-4.231 2.629,-5.622Z" style="fill-rule:nonzero;"/></svg>