<svg fill="#424242" width="16" height="16" viewBox="0 0 67 67" version="1.1" xmlns="http://www.w3.org/2000/svg" style="fill-rule:evenodd;clip-rule:evenodd;stroke-linejoin:round;stroke-miterlimit:2;"><path d="M39.546,8.372c-1.729,0 -3.125,1.397 -3.125,3.125c0,1.728 1.396,3.125 3.125,3.125l8.075,-0l-19.656,19.666c-1.221,1.221 -1.221,3.203 -0,4.424c1.22,1.22 3.203,1.22 4.423,-0l19.657,-19.667l-0,8.076c-0,1.728 1.396,3.125 3.125,3.125c1.728,-0 3.124,-1.397 3.124,-3.125l0,-15.624c0,-1.728 -1.396,-3.125 -3.124,-3.125l-15.624,0Zm-23.436,3.125c-4.316,0 -7.812,3.496 -7.812,7.812l0,31.248c0,4.316 3.496,7.811 7.812,7.811l31.248,0c4.316,0 7.812,-3.495 7.812,-7.811l-0,-10.937c-0,-1.728 -1.397,-3.125 -3.125,-3.125c-1.729,0 -3.125,1.397 -3.125,3.125l0,10.937c0,0.859 -0.703,1.562 -1.562,1.562l-31.248,-0c-0.859,-0 -1.562,-0.703 -1.562,-1.562l-0,-31.248c-0,-0.859 0.703,-1.562 1.562,-1.562l10.937,-0c1.728,-0 3.125,-1.397 3.125,-3.125c-0,-1.729 -1.397,-3.125 -3.125,-3.125l-10.937,0Z" style="fill-rule:nonzero;"/></svg>