<svg fill="#2a51cb" width="16" height="16" viewBox="0 0 134 134" version="1.1" xmlns="http://www.w3.org/2000/svg" xmlns:xlink="http://www.w3.org/1999/xlink" xml:space="preserve" xmlns:serif="http://www.serif.com/" style="fill-rule:evenodd;clip-rule:evenodd;stroke-linejoin:round;stroke-miterlimit:2;"><path d="M26.837,44.149c7.915,-13.866 22.857,-23.298 39.83,-23.298c17.294,0 32.481,9.793 40.27,24.088c-2.388,-0.434 -4.617,-0.682 -6.689,-0.744l-1.391,5.954c0.464,-0.066 0.956,-0.099 1.476,-0.099c2.425,-0 5.714,0.803 9.866,2.408c1.48,4.479 2.283,9.257 2.283,14.209c-0,1.616 -0.086,3.213 -0.252,4.785c-0.34,-0.775 -0.77,-1.499 -1.29,-2.172c-1.503,-1.947 -4.241,-4.077 -8.213,-6.391l-2.951,-1.706c-1.231,-0.72 -2.243,-1.377 -3.035,-1.971l-2.139,9.159c0.349,0.215 0.71,0.431 1.081,0.649l2.757,1.59c2.227,1.311 3.74,2.443 4.538,3.398c0.798,0.954 1.197,2.125 1.197,3.513c-0,1.755 -0.636,3.143 -1.907,4.164c-1.272,1.022 -3.012,1.533 -5.22,1.533c-1.716,0 -3.62,-0.285 -5.714,-0.854l-1.428,6.118c2.663,0.423 5.09,0.635 7.281,0.635c4.431,0 8.015,-0.888 10.75,-2.665c-7.439,15.344 -23.204,26.03 -41.27,26.03c-25.134,-0 -45.816,-20.682 -45.816,-45.815c0,-4.283 0.601,-8.437 1.721,-12.378l8.377,34.895l8.612,0l7.002,-30.885l6.68,30.885l10.547,0l7.002,-30.885l6.679,30.885l8.613,0l11.367,-45.035l-6.24,0l-8.32,32.772l-7.09,-32.772l-8.818,0l-7.243,28.531l-6.848,-28.531l-8.848,0l-7.47,32.955l-7.911,-32.955l-1.826,0Z" style="fill-rule:nonzero;"/></svg>