<svg width="16" height="16" viewBox="0 0 16 16" version="1.1" xmlns="http://www.w3.org/2000/svg" xmlns:xlink="http://www.w3.org/1999/xlink" xml:space="preserve" xmlns:serif="http://www.serif.com/" style="fill-rule:evenodd;clip-rule:evenodd;stroke-linejoin:round;stroke-miterlimit:2;"><g id="Black"><path d="M10.402,0.296c0.01,0.084 0.04,0.368 0.068,0.63c0.055,0.512 0.065,1.508 0.022,1.93c-0.05,0.477 -0.232,1.175 -0.465,1.77c-0.098,0.248 -0.131,0.284 -0.076,0.08c0.076,-0.273 0.106,-0.517 0.103,-0.819c-0.005,-0.388 -0.072,-0.639 -0.258,-0.958c-0.213,-0.366 -0.673,-0.81 -1.192,-1.149c-0.586,-0.384 -1.34,-0.663 -2.016,-0.752c-0.511,-0.064 -0.714,-0.069 -1.094,-0.013c-0.346,0.048 -0.479,0.088 -0.303,0.088c0.183,0 0.671,0.069 0.886,0.125c0.659,0.168 1.215,0.53 1.591,1.04c0.092,0.122 0.207,0.313 0.255,0.424c0.158,0.346 0.268,0.854 0.268,1.217c-0,0.42 -0.125,1.07 -0.316,1.642c-0.263,0.79 -0.731,1.519 -1.284,2.007c-0.399,0.351 -0.636,0.455 -0.867,0.378c-0.24,-0.083 -0.458,-0.602 -0.39,-0.941c0.047,-0.24 0.077,-0.299 0.217,-0.439c0.251,-0.251 0.316,-0.406 0.321,-0.743l0.002,-0.249l-0.1,0.085c-0.255,0.217 -0.486,0.288 -1.014,0.312c-0.448,0.023 -0.604,0.056 -0.756,0.169c-0.196,0.144 -0.241,0.277 -0.283,0.818c-0.013,0.196 -0.013,0.198 0.027,0.134c0.168,-0.269 0.489,-0.444 0.626,-0.342c0.065,0.049 0.136,0.2 0.136,0.299c-0,0.131 -0.108,0.304 -0.266,0.424c-0.15,0.115 -0.376,0.366 -0.456,0.506c-0.117,0.208 -0.167,0.408 -0.165,0.676c0.003,0.298 0.053,0.488 0.21,0.806c0.251,0.508 0.774,0.918 1.315,1.04c0.07,0.016 0.128,0.027 0.13,0.029c0.003,-0 0.023,0.195 0.045,0.432c0.063,0.666 0.208,1.36 0.376,1.808c0.075,0.198 0.303,0.595 0.426,0.739c0.338,0.397 0.949,0.648 1.575,0.648c0.155,-0 0.238,-0.009 0.228,-0.023c-0.008,-0.013 -0.048,-0.022 -0.088,-0.022c-0.205,0 -0.671,-0.277 -0.891,-0.532c-0.113,-0.129 -0.258,-0.368 -0.321,-0.528c-0.037,-0.091 -0.037,-0.093 0.01,-0.071c0.025,0.013 0.055,0.033 0.063,0.044c0.057,0.082 0.959,0.63 1.252,0.761c0.336,0.149 0.508,0.182 0.927,0.18c0.388,-0 0.701,-0.049 1.039,-0.16l0.188,-0.06l-0.276,-0.013c-0.428,-0.022 -0.769,-0.118 -1.212,-0.344c-0.513,-0.264 -0.861,-0.579 -1.102,-1.003c-0.042,-0.075 -0.072,-0.137 -0.065,-0.137c0.008,-0 0.075,0.086 0.153,0.193c0.16,0.222 0.573,0.599 0.804,0.734c0.185,0.111 0.396,0.202 0.583,0.257c0.118,0.036 0.263,0.069 0.689,0.067c0.456,0 0.528,-0.007 0.801,-0.062c0.474,-0.095 0.799,-0.253 1.26,-0.608c0.085,-0.066 0.155,-0.129 0.155,-0.14c0,-0.008 -0.085,0.02 -0.19,0.069c-0.318,0.144 -0.789,0.195 -0.949,0.102c-0.068,-0.04 -0.083,-0.104 -0.03,-0.142c0.015,-0.011 0.148,-0.075 0.293,-0.14c0.22,-0.099 0.3,-0.15 0.491,-0.319c0.19,-0.166 0.245,-0.231 0.33,-0.388c0.058,-0.104 0.11,-0.22 0.118,-0.26c0.015,-0.064 -0.013,-0.046 -0.281,0.189c-0.328,0.286 -0.46,0.361 -0.826,0.468c-0.376,0.109 -0.704,0.146 -1.285,0.146c-0.593,0 -0.779,-0.026 -1.199,-0.17c-0.489,-0.169 -1.135,-0.613 -1.398,-0.961c-0.18,-0.237 -0.35,-0.57 -0.493,-0.963c-0.078,-0.213 -0.158,-0.412 -0.18,-0.441c-0.078,-0.107 -0.015,-0.069 0.097,0.058c0.131,0.148 0.469,0.425 0.742,0.61c0.182,0.124 0.721,0.386 0.746,0.361c0.007,-0.004 -0.005,-0.058 -0.025,-0.117c-0.085,-0.231 -0.1,-0.369 -0.095,-0.857l0.002,-0.197l0.125,0.133c0.336,0.355 0.659,0.47 1.325,0.47c0.371,0 0.619,-0.024 1.065,-0.102c0.701,-0.124 1.565,-0.426 2.033,-0.707c0.09,-0.056 0.175,-0.1 0.19,-0.1c0.103,-0 -0.07,-0.033 -0.571,-0.109c-0.886,-0.135 -1.44,-0.246 -1.988,-0.399c-0.13,-0.036 -0.393,-0.109 -0.581,-0.16c-0.19,-0.051 -0.346,-0.102 -0.346,-0.115c0,-0.011 0.02,-0.014 0.045,-0.005c0.066,0.022 0.296,0.076 0.494,0.113c0.243,0.047 0.881,0.074 1.234,0.051c1.238,-0.075 2.187,-0.603 2.658,-1.475c0.23,-0.421 0.373,-0.956 0.393,-1.459l0.015,-0.313l-0.098,0.1c-0.17,0.179 -0.636,0.621 -0.654,0.621c-0.01,-0 -0.072,0.046 -0.142,0.104c-0.138,0.113 -0.479,0.317 -0.824,0.49c-0.554,0.282 -1.483,0.546 -1.994,0.568c-0.102,0.005 -0.152,0.005 -0.112,-0.002c0.583,-0.075 1.247,-0.306 1.815,-0.632c0.889,-0.51 1.475,-1.291 1.681,-2.243c0.105,-0.492 0.117,-1.034 0.032,-1.568c-0.085,-0.53 -0.295,-1.129 -0.521,-1.475c-0.065,-0.098 -0.135,-0.215 -0.16,-0.26c-0.022,-0.046 -0.05,-0.084 -0.058,-0.084c-0.007,-0 -0.012,0.213 -0.012,0.47c0.002,0.65 -0.065,1.018 -0.298,1.673c-0.338,0.943 -0.912,1.79 -1.633,2.404c-0.403,0.346 -0.548,0.435 -0.248,0.156c0.138,-0.129 0.298,-0.293 0.358,-0.364c0.391,-0.466 0.664,-1.023 0.824,-1.677c0.038,-0.151 0.048,-0.277 0.045,-0.632c-0.002,-0.641 -0.092,-1.083 -0.343,-1.675c-0.082,-0.2 -0.355,-0.619 -0.531,-0.821c-0.122,-0.14 -0.536,-0.539 -0.571,-0.552c-0.015,-0.005 -0.02,0.049 -0.01,0.144l0,-0Z" style="fill-rule:nonzero;"/><path d="M6.075,2.315c-0.664,0.122 -0.942,0.195 -1.515,0.399c-1.172,0.421 -2.322,1.253 -3.086,2.238c-0.721,0.932 -1.197,2.127 -1.299,3.279c-0.036,0.386 -0.015,1.2 0.037,1.524c0.098,0.59 0.268,1.177 0.483,1.65c0.108,0.237 0.506,0.943 0.569,1.011c0.017,0.018 0.095,0.127 0.173,0.24c0.25,0.366 0.641,0.779 1.184,1.253c0.466,0.402 0.807,0.637 1.388,0.945c1.001,0.535 1.788,0.792 2.905,0.947c0.388,0.056 0.506,0.063 1.052,0.063c0.661,-0 0.866,-0.018 1.577,-0.145c1.608,-0.286 2.943,-0.931 4.11,-1.985c0.909,-0.825 1.505,-1.735 1.911,-2.921c0.187,-0.551 0.29,-1.141 0.308,-1.802c0.022,-0.885 -0.105,-1.646 -0.436,-2.584c-0.153,-0.428 -0.466,-1.02 -0.719,-1.353c-0.05,-0.067 -0.115,-0.155 -0.145,-0.195c-0.028,-0.04 -0.055,-0.069 -0.06,-0.065c-0.005,0.005 0.002,0.111 0.015,0.24c0.07,0.699 -0.038,1.449 -0.288,1.983l-0.085,0.186l0.047,0.196c0.131,0.532 0.163,0.814 0.161,1.404c-0,0.603 -0.015,0.73 -0.138,1.227c-0.168,0.678 -0.463,1.333 -0.857,1.889c-0.41,0.582 -1.112,1.216 -1.77,1.6c-0.932,0.541 -1.828,0.841 -2.893,0.963c-1.577,0.184 -3.29,-0.28 -4.703,-1.269c-1.177,-0.828 -1.991,-2.11 -2.264,-3.565c-0.062,-0.331 -0.07,-0.421 -0.07,-0.901c0.003,-0.599 0.035,-0.862 0.175,-1.353c0.409,-1.437 1.558,-2.702 3.056,-3.358c0.22,-0.096 0.508,-0.206 0.638,-0.244c0.594,-0.171 1.227,-0.269 1.731,-0.269l0.265,0l-0.062,-0.161c-0.118,-0.289 -0.561,-0.812 -0.857,-1.01c-0.158,-0.104 -0.23,-0.113 -0.538,-0.057l-0,-0Z" style="fill-rule:nonzero;"/></g></svg>