<svg width="100%" height="100%" viewBox="0 0 67 67" version="1.1" xmlns="http://www.w3.org/2000/svg" xmlns:xlink="http://www.w3.org/1999/xlink" xml:space="preserve" xmlns:serif="http://www.serif.com/" style="fill-rule:evenodd;clip-rule:evenodd;stroke-linejoin:round;stroke-miterlimit:2;"><path d="M54.633,28.25c0.561,0.406 1.278,0.854 2.149,1.344l2.09,1.164c2.813,1.577 4.752,3.029 5.817,4.357c1.065,1.328 1.597,2.945 1.597,4.851c-0,2.708 -1.006,4.831 -3.017,6.369c-2.011,1.538 -4.785,2.306 -8.321,2.306c-1.551,0 -3.27,-0.144 -5.156,-0.433l1.012,-4.172c1.482,0.389 2.831,0.583 4.046,0.583c1.564,0 2.796,-0.348 3.697,-1.045c0.9,-0.697 1.351,-1.643 1.351,-2.839c-0,-0.947 -0.283,-1.745 -0.848,-2.396c-0.566,-0.651 -1.637,-1.423 -3.214,-2.317l-1.952,-1.084c-0.264,-0.148 -0.519,-0.296 -0.766,-0.443l1.515,-6.245Zm2.483,-10.239c2.142,0.062 4.521,0.394 7.139,0.995l0,4.673c-2.984,-1.117 -5.343,-1.676 -7.078,-1.676c-0.369,-0 -0.717,0.023 -1.046,0.068l0.985,-4.06Zm-49.079,30.676l-7.656,-30.707l6.038,-0l5.602,22.47l5.29,-22.47l5.333,-0l5.021,22.345l5.892,-22.345l4.42,-0l-8.051,30.707l-6.1,-0l-4.73,-21.059l-4.959,21.059l-6.1,-0Zm17.159,-0l-7.656,-30.707l6.038,-0l5.601,22.47l5.291,-22.47l5.332,-0l5.022,22.345l5.892,-22.345l4.419,-0l-8.05,30.707l-6.1,-0l-4.73,-21.059l-4.959,21.059l-6.1,-0Z" style="fill-rule:nonzero;"/></svg>